<?xml version="1.0" encoding="utf-8"?>
<svg xmlns="http://www.w3.org/2000/svg" viewBox="51.163 106.883 165.003 41.007" xmlns:bx="https://boxy-svg.com" width="165.003px" height="41.007px"><defs><linearGradient id="color-0"><stop style="stop-color: #1488cc;" offset="0"/><stop style="stop-color: #2b32b2;" offset="1"/></linearGradient><linearGradient id="color-1"><stop style="stop-color: #8e2de2;" offset="0"/><stop style="stop-color: #4a00e0;" offset="1"/></linearGradient><linearGradient id="color-2"><stop style="stop-color: #12c2e9;" offset="0"/><stop style="stop-color: #c471ed;" offset="0.5"/><stop style="stop-color: #f64f59;" offset="1"/></linearGradient><linearGradient id="color-3"><stop style="stop-color: #59c173;" offset="0"/><stop style="stop-color: #a17fe0;" offset="0.5"/><stop style="stop-color: #5d26c1;" offset="1"/></linearGradient><linearGradient id="color-4"><stop style="stop-color: #c6ffdd;" offset="0"/><stop style="stop-color: #fbd786;" offset="0.5"/><stop style="stop-color: #f7797d;" offset="1"/></linearGradient><linearGradient id="color-3-0" href="#color-3" gradientUnits="userSpaceOnUse" x1="133.466" y1="107.888" x2="133.466" y2="147.888"/></defs><g id="object-0"><g id="object-3" transform="matrix(1, 0, 0, 1, 0.199529, -0.510085)"><path fill-rule="evenodd" clip-rule="evenodd" d="M 57.466 107.888 L 209.466 107.888 C 212.766 107.888 215.466 110.588 215.466 113.888 L 215.466 141.888 C 215.466 145.188 212.766 147.888 209.466 147.888 L 57.466 147.888 C 54.166 147.888 51.466 145.188 51.466 141.888 L 51.466 113.888 C 51.466 110.588 54.166 107.888 57.466 107.888 Z" style="fill: rgb(237, 243, 245); stroke: url(&quot;#color-3-0&quot;);" id="path-1"/><path d="M 80.339 119.254 C 78.72 118.496 77.009 117.958 75.25 117.654 C 75.03 118.05 74.774 118.584 74.598 119.007 C 72.7 118.721 70.82 118.721 68.957 119.007 C 68.781 118.584 68.518 118.05 68.297 117.654 C 66.535 117.958 64.823 118.498 63.205 119.257 C 59.984 124.124 59.111 128.87 59.547 133.549 C 61.683 135.145 63.754 136.114 65.789 136.748 C 66.294 136.052 66.742 135.316 67.125 134.546 C 66.394 134.267 65.69 133.925 65.02 133.522 C 65.197 133.391 65.369 133.255 65.537 133.113 C 69.596 135.011 74.005 135.011 78.016 133.113 C 78.185 133.254 78.357 133.389 78.533 133.522 C 77.862 133.926 77.155 134.269 76.423 134.548 C 76.81 135.32 77.256 136.058 77.761 136.749 C 79.797 136.116 81.87 135.146 84.005 133.549 C 84.518 128.125 83.131 123.423 80.339 119.253 M 67.679 130.672 C 66.46 130.672 65.461 129.534 65.461 128.149 C 65.461 126.764 66.439 125.624 67.679 125.624 C 68.918 125.624 69.917 126.761 69.896 128.149 C 69.898 129.534 68.918 130.672 67.679 130.672 M 75.874 130.672 C 74.655 130.672 73.657 129.534 73.657 128.149 C 73.657 126.764 74.634 125.624 75.874 125.624 C 77.114 125.624 78.113 126.761 78.092 128.149 C 78.092 129.534 77.114 130.672 75.874 130.672" style="fill: rgb(0, 17, 53);" id="path-2"/><path d="M 96.01 122.14 L 97.39 122.14 L 97.39 129.76 Q 97.39 130.66 97.14 131.26 Q 96.9 131.86 96.48 132.23 Q 96.06 132.61 95.5 132.76 Q 94.95 132.92 94.32 132.92 Q 93.7 132.92 93.21 132.81 Q 92.73 132.7 92.38 132.56 Q 92.04 132.43 91.84 132.31 Q 91.65 132.19 91.62 132.16 L 92.1 131.15 Q 92.14 131.18 92.31 131.28 Q 92.49 131.38 92.76 131.47 Q 93.03 131.57 93.39 131.65 Q 93.75 131.72 94.17 131.72 Q 94.54 131.72 94.88 131.64 Q 95.22 131.56 95.47 131.34 Q 95.73 131.12 95.87 130.74 Q 96.01 130.36 96.01 129.74 Z M 102.34 132.88 Q 101.5 132.88 100.85 132.59 Q 100.2 132.31 99.75 131.79 Q 99.3 131.27 99.06 130.54 Q 98.82 129.82 98.82 128.93 Q 98.82 128.06 99.06 127.33 Q 99.3 126.61 99.75 126.08 Q 100.21 125.56 100.86 125.27 Q 101.52 124.99 102.34 124.99 Q 103.17 124.99 103.82 125.27 Q 104.47 125.56 104.93 126.07 Q 105.39 126.59 105.63 127.32 Q 105.87 128.05 105.87 128.93 Q 105.87 129.83 105.63 130.56 Q 105.39 131.29 104.94 131.8 Q 104.49 132.32 103.83 132.6 Q 103.17 132.88 102.34 132.88 Z M 102.34 131.69 Q 103.44 131.69 103.96 130.93 Q 104.49 130.16 104.49 128.93 Q 104.49 128.33 104.35 127.83 Q 104.22 127.33 103.95 126.96 Q 103.69 126.59 103.29 126.38 Q 102.88 126.17 102.34 126.17 Q 101.28 126.17 100.74 126.94 Q 100.2 127.7 100.2 128.93 Q 100.2 130.19 100.72 130.94 Q 101.25 131.69 102.34 131.69 Z M 107.22 125.18 L 108.55 125.18 L 108.55 132.68 L 107.22 132.68 Z M 108.75 122.75 Q 108.75 123.16 108.51 123.41 Q 108.28 123.67 107.88 123.67 Q 107.47 123.67 107.24 123.4 Q 107.01 123.14 107.01 122.75 Q 107.01 122.36 107.24 122.1 Q 107.47 121.84 107.88 121.84 Q 108.28 121.84 108.51 122.09 Q 108.75 122.35 108.75 122.75 Z M 116.54 132.68 L 115.2 132.68 L 115.2 128.08 Q 115.2 127.51 115.09 127.13 Q 114.98 126.76 114.77 126.54 Q 114.56 126.32 114.27 126.24 Q 113.99 126.16 113.66 126.16 Q 113.06 126.16 112.65 126.41 Q 112.25 126.67 111.99 127.09 Q 111.74 127.52 111.63 128.06 Q 111.51 128.6 111.51 129.17 L 111.51 132.68 L 110.18 132.68 L 110.18 125.18 L 111.41 125.18 L 111.47 126.22 Q 111.56 126.04 111.75 125.82 Q 111.95 125.6 112.26 125.41 Q 112.56 125.23 112.97 125.11 Q 113.37 124.99 113.9 124.99 Q 115.19 124.99 115.86 125.74 Q 116.54 126.49 116.54 127.79 Z M 121.37 125.18 L 122.71 125.18 L 122.71 129.88 Q 122.71 130.42 122.82 130.77 Q 122.93 131.12 123.14 131.33 Q 123.34 131.54 123.62 131.62 Q 123.91 131.71 124.25 131.71 Q 124.85 131.71 125.26 131.45 Q 125.66 131.2 125.92 130.77 Q 126.17 130.34 126.29 129.8 Q 126.4 129.26 126.4 128.69 L 126.4 125.18 L 127.73 125.18 L 127.73 132.68 L 126.5 132.68 L 126.44 131.68 Q 126.35 131.86 126.16 132.07 Q 125.96 132.28 125.66 132.46 Q 125.36 132.64 124.96 132.76 Q 124.55 132.88 124.03 132.88 Q 122.74 132.88 122.06 132.13 Q 121.37 131.38 121.37 130.07 Z M 129.24 131.06 Q 129.61 131.26 130.27 131.5 Q 130.93 131.74 131.83 131.74 Q 132.33 131.74 132.65 131.65 Q 132.97 131.57 133.16 131.43 Q 133.35 131.29 133.43 131.1 Q 133.51 130.91 133.51 130.69 Q 133.51 130.28 133.2 130 Q 132.9 129.73 132.13 129.58 L 131.22 129.4 Q 130.74 129.31 130.32 129.14 Q 129.91 128.98 129.61 128.71 Q 129.31 128.45 129.14 128.09 Q 128.97 127.73 128.97 127.24 Q 128.97 126.22 129.76 125.6 Q 130.56 124.99 131.89 124.99 Q 132.76 124.99 133.45 125.2 Q 134.14 125.41 134.58 125.66 L 134.16 126.65 Q 134.05 126.59 133.82 126.5 Q 133.59 126.41 133.28 126.33 Q 132.97 126.25 132.61 126.19 Q 132.25 126.13 131.89 126.13 Q 131.07 126.13 130.68 126.41 Q 130.29 126.7 130.29 127.18 Q 130.29 127.58 130.56 127.82 Q 130.84 128.06 131.67 128.21 L 132.6 128.39 Q 133.68 128.6 134.28 129.08 Q 134.88 129.56 134.88 130.57 Q 134.88 131.62 134.09 132.25 Q 133.3 132.88 131.85 132.88 Q 130.78 132.88 129.99 132.61 Q 129.21 132.34 128.76 132.04 Z M 142.54 132.88 Q 141.7 132.88 141.04 132.59 Q 140.39 132.31 139.94 131.79 Q 139.49 131.27 139.25 130.54 Q 139.01 129.82 139.01 128.93 Q 139.01 128.06 139.25 127.33 Q 139.49 126.61 139.95 126.08 Q 140.41 125.56 141.06 125.27 Q 141.71 124.99 142.54 124.99 Q 143.36 124.99 144.01 125.27 Q 144.67 125.56 145.12 126.07 Q 145.58 126.59 145.82 127.32 Q 146.06 128.05 146.06 128.93 Q 146.06 129.83 145.82 130.56 Q 145.58 131.29 145.13 131.8 Q 144.68 132.32 144.02 132.6 Q 143.36 132.88 142.54 132.88 Z M 142.54 131.69 Q 143.63 131.69 144.16 130.93 Q 144.68 130.16 144.68 128.93 Q 144.68 128.33 144.55 127.83 Q 144.41 127.33 144.15 126.96 Q 143.89 126.59 143.48 126.38 Q 143.08 126.17 142.54 126.17 Q 141.47 126.17 140.93 126.94 Q 140.39 127.7 140.39 128.93 Q 140.39 130.19 140.92 130.94 Q 141.44 131.69 142.54 131.69 Z M 153.7 132.68 L 152.36 132.68 L 152.36 128.08 Q 152.36 127.51 152.25 127.13 Q 152.14 126.76 151.93 126.54 Q 151.72 126.32 151.43 126.24 Q 151.15 126.16 150.82 126.16 Q 150.22 126.16 149.81 126.41 Q 149.41 126.67 149.15 127.09 Q 148.9 127.52 148.78 128.06 Q 148.67 128.6 148.67 129.17 L 148.67 132.68 L 147.34 132.68 L 147.34 125.18 L 148.57 125.18 L 148.63 126.22 Q 148.72 126.04 148.91 125.82 Q 149.11 125.6 149.41 125.41 Q 149.72 125.23 150.13 125.11 Q 150.53 124.99 151.06 124.99 Q 152.35 124.99 153.02 125.74 Q 153.7 126.49 153.7 127.79 Z" style="fill: rgb(0, 17, 53); text-wrap-mode: nowrap;"/><path d="M 158.69 122.14 L 162.35 122.14 Q 163.65 122.14 164.61 122.52 Q 165.57 122.9 166.2 123.6 Q 166.83 124.3 167.15 125.26 Q 167.46 126.23 167.46 127.42 Q 167.46 128.62 167.15 129.59 Q 166.83 130.57 166.2 131.25 Q 165.56 131.93 164.6 132.31 Q 163.64 132.68 162.35 132.68 L 158.69 132.68 Z M 160.8 130.87 L 162.35 130.87 Q 163.02 130.87 163.57 130.62 Q 164.12 130.37 164.49 129.91 Q 164.87 129.46 165.07 128.82 Q 165.27 128.18 165.27 127.4 Q 165.27 125.65 164.48 124.8 Q 163.68 123.95 162.35 123.95 L 160.8 123.95 Z M 168.9 125.12 L 170.91 125.12 L 170.91 132.68 L 168.9 132.68 Z M 171.04 122.81 Q 171.04 123.34 170.73 123.68 Q 170.43 124.03 169.9 124.03 Q 169.38 124.03 169.07 123.67 Q 168.76 123.32 168.76 122.81 Q 168.76 122.3 169.07 121.95 Q 169.38 121.6 169.9 121.6 Q 170.43 121.6 170.73 121.94 Q 171.04 122.29 171.04 122.81 Z M 172.63 130.63 Q 172.83 130.75 173.12 130.87 Q 173.41 130.99 173.76 131.08 Q 174.1 131.18 174.49 131.25 Q 174.88 131.32 175.27 131.32 Q 175.8 131.32 176.09 131.14 Q 176.38 130.97 176.38 130.63 Q 176.38 130.3 176.14 130.1 Q 175.9 129.91 175.29 129.79 L 174.37 129.61 Q 173.91 129.52 173.5 129.34 Q 173.1 129.17 172.81 128.9 Q 172.51 128.63 172.35 128.23 Q 172.18 127.84 172.18 127.3 Q 172.18 126.8 172.39 126.37 Q 172.59 125.93 172.97 125.62 Q 173.35 125.3 173.91 125.11 Q 174.46 124.93 175.17 124.93 Q 176.11 124.93 176.87 125.14 Q 177.63 125.35 178.06 125.63 L 177.48 127.01 Q 177.16 126.86 176.59 126.69 Q 176.01 126.52 175.29 126.52 Q 175.12 126.52 174.91 126.54 Q 174.69 126.56 174.49 126.64 Q 174.28 126.71 174.15 126.85 Q 174.01 127 174.01 127.24 Q 174.01 127.48 174.19 127.66 Q 174.37 127.84 174.97 127.96 L 175.87 128.14 Q 177.15 128.38 177.73 128.95 Q 178.3 129.53 178.3 130.48 Q 178.3 131.6 177.54 132.25 Q 176.77 132.89 175.14 132.89 Q 174.06 132.89 173.23 132.6 Q 172.39 132.31 171.96 131.99 Z M 181.2 128.9 Q 181.2 130.09 181.69 130.62 Q 182.18 131.15 183.12 131.15 Q 183.75 131.15 184.11 130.99 Q 184.47 130.82 184.68 130.69 L 185.43 132.08 Q 185.3 132.17 185.08 132.31 Q 184.86 132.46 184.55 132.58 Q 184.23 132.71 183.82 132.8 Q 183.41 132.89 182.9 132.89 Q 181.98 132.89 181.28 132.61 Q 180.59 132.32 180.12 131.8 Q 179.66 131.29 179.42 130.54 Q 179.18 129.8 179.18 128.9 Q 179.18 128.02 179.43 127.28 Q 179.69 126.55 180.17 126.02 Q 180.66 125.5 181.35 125.21 Q 182.04 124.93 182.91 124.93 Q 183.47 124.93 183.92 125.05 Q 184.37 125.17 184.69 125.32 Q 185.01 125.48 185.21 125.62 Q 185.4 125.77 185.46 125.83 L 184.56 127.21 Q 184.49 127.16 184.35 127.07 Q 184.22 126.98 184.02 126.89 Q 183.83 126.8 183.57 126.73 Q 183.32 126.67 183.02 126.67 Q 182.19 126.67 181.7 127.21 Q 181.2 127.76 181.2 128.9 Z M 188.04 128.9 Q 188.04 130 188.46 130.59 Q 188.88 131.18 189.73 131.18 Q 190.59 131.18 191 130.58 Q 191.41 129.98 191.41 128.9 Q 191.41 127.82 191 127.22 Q 190.59 126.62 189.73 126.62 Q 188.88 126.62 188.46 127.21 Q 188.04 127.81 188.04 128.9 Z M 186.03 128.9 Q 186.03 127.99 186.27 127.25 Q 186.52 126.52 187 126 Q 187.48 125.48 188.16 125.2 Q 188.85 124.91 189.73 124.91 Q 190.6 124.91 191.29 125.2 Q 191.98 125.48 192.45 126 Q 192.93 126.52 193.17 127.25 Q 193.42 127.99 193.42 128.9 Q 193.42 129.82 193.17 130.55 Q 192.93 131.29 192.45 131.8 Q 191.98 132.32 191.29 132.61 Q 190.6 132.89 189.73 132.89 Q 188.85 132.89 188.16 132.61 Q 187.48 132.32 187 131.8 Q 186.52 131.29 186.27 130.55 Q 186.03 129.82 186.03 128.9 Z M 198.69 124.99 Q 199.14 124.99 199.32 125.02 Q 199.49 125.05 199.61 125.09 L 199.4 126.8 Q 199.32 126.77 199.14 126.73 Q 198.95 126.7 198.6 126.7 Q 198.24 126.7 197.9 126.85 Q 197.55 127 197.28 127.35 Q 197.01 127.7 196.85 128.26 Q 196.68 128.83 196.68 129.64 L 196.68 132.68 L 194.67 132.68 L 194.67 125.12 L 196.5 125.12 L 196.58 126.22 Q 196.68 126.01 196.89 125.79 Q 197.09 125.57 197.37 125.39 Q 197.64 125.21 197.98 125.1 Q 198.32 124.99 198.69 124.99 Z M 203.44 131.15 Q 203.74 131.15 204 131.07 Q 204.25 130.99 204.45 130.87 Q 204.64 130.76 204.78 130.63 Q 204.91 130.49 204.99 130.37 L 204.99 129.01 Q 204.99 128.48 204.91 128.05 Q 204.82 127.61 204.64 127.3 Q 204.45 127 204.13 126.82 Q 203.8 126.65 203.34 126.65 Q 202.53 126.65 202.16 127.24 Q 201.79 127.84 201.79 128.9 Q 201.79 130.09 202.2 130.62 Q 202.6 131.15 203.44 131.15 Z M 205.29 132.68 L 205.23 131.92 Q 204.93 132.22 204.41 132.49 Q 203.89 132.77 203.02 132.77 Q 202.39 132.77 201.81 132.58 Q 201.22 132.38 200.77 131.93 Q 200.31 131.48 200.04 130.74 Q 199.77 130 199.77 128.9 Q 199.77 128.08 199.96 127.36 Q 200.14 126.64 200.53 126.1 Q 200.92 125.56 201.52 125.24 Q 202.11 124.93 202.92 124.93 Q 203.74 124.93 204.25 125.2 Q 204.75 125.48 204.99 125.83 L 204.99 121.43 L 207 121.43 L 207 132.68 Z" style="fill: rgb(0, 17, 53); text-wrap-mode: nowrap;"/></g></g></svg>