<?xml version="1.0" encoding="utf-8"?>
<svg xmlns="http://www.w3.org/2000/svg" viewBox="50.95 107.38 167.619 41.011" xmlns:bx="https://boxy-svg.com" width="167.619px" height="41.011px"><defs><linearGradient id="color-0"><stop style="stop-color: #1488cc;" offset="0"/><stop style="stop-color: #2b32b2;" offset="1"/></linearGradient><linearGradient id="color-1"><stop style="stop-color: #8e2de2;" offset="0"/><stop style="stop-color: #4a00e0;" offset="1"/></linearGradient><linearGradient id="color-2"><stop style="stop-color: #12c2e9;" offset="0"/><stop style="stop-color: #c471ed;" offset="0.5"/><stop style="stop-color: #f64f59;" offset="1"/></linearGradient><linearGradient id="color-3"><stop style="stop-color: #59c173;" offset="0"/><stop style="stop-color: #a17fe0;" offset="0.5"/><stop style="stop-color: #5d26c1;" offset="1"/></linearGradient><linearGradient id="color-4"><stop style="stop-color: #c6ffdd;" offset="0"/><stop style="stop-color: #fbd786;" offset="0.5"/><stop style="stop-color: #f7797d;" offset="1"/></linearGradient><linearGradient id="color-4-0" href="#color-4" gradientUnits="userSpaceOnUse" x1="134.765" y1="107.888" x2="134.765" y2="147.888"/></defs><g id="object-1"><path fill-rule="evenodd" clip-rule="evenodd" d="M 57.561 107.888 L 211.97 107.888 C 215.322 107.888 218.065 110.588 218.065 113.888 L 218.065 141.888 C 218.065 145.188 215.322 147.888 211.97 147.888 L 57.561 147.888 C 54.209 147.888 51.466 145.188 51.466 141.888 L 51.466 113.888 C 51.466 110.588 54.209 107.888 57.561 107.888 Z" style="fill: rgb(65, 90, 119); stroke: url(&quot;#color-4-0&quot;);" id="object-0"/><path d="M 97.75 133.13 L 96.13 133.13 L 93.62 128.88 L 92.06 128.88 L 92.06 133.13 L 90.71 133.13 L 90.71 122.58 L 93.76 122.58 Q 94.73 122.58 95.39 122.89 Q 96.04 123.2 96.44 123.67 Q 96.83 124.14 97 124.69 Q 97.16 125.24 97.16 125.73 Q 97.16 126.84 96.6 127.58 Q 96.04 128.31 95.05 128.66 Z M 95.78 125.73 Q 95.78 124.83 95.25 124.31 Q 94.72 123.78 93.73 123.78 L 92.06 123.78 L 92.06 127.68 L 93.62 127.68 Q 94.7 127.68 95.24 127.17 Q 95.78 126.65 95.78 125.73 Z M 98.57 125.63 L 99.9 125.63 L 99.9 130.32 Q 99.9 130.86 100.02 131.22 Q 100.13 131.57 100.33 131.78 Q 100.53 131.99 100.82 132.07 Q 101.1 132.15 101.45 132.15 Q 102.05 132.15 102.45 131.9 Q 102.86 131.64 103.11 131.22 Q 103.37 130.79 103.48 130.25 Q 103.59 129.71 103.59 129.14 L 103.59 125.63 L 104.93 125.63 L 104.93 133.13 L 103.7 133.13 L 103.64 132.12 Q 103.55 132.3 103.35 132.51 Q 103.16 132.72 102.86 132.9 Q 102.56 133.08 102.15 133.2 Q 101.75 133.32 101.22 133.32 Q 99.93 133.32 99.25 132.57 Q 98.57 131.82 98.57 130.52 Z M 112.84 133.13 L 111.51 133.13 L 111.51 128.52 Q 111.51 127.95 111.39 127.58 Q 111.28 127.2 111.07 126.99 Q 110.86 126.77 110.58 126.69 Q 110.29 126.6 109.96 126.6 Q 109.36 126.6 108.96 126.86 Q 108.55 127.11 108.3 127.54 Q 108.04 127.97 107.93 128.51 Q 107.82 129.05 107.82 129.62 L 107.82 133.13 L 106.48 133.13 L 106.48 125.63 L 107.71 125.63 L 107.77 126.66 Q 107.86 126.48 108.06 126.27 Q 108.25 126.05 108.56 125.86 Q 108.87 125.67 109.27 125.55 Q 109.68 125.43 110.2 125.43 Q 111.49 125.43 112.17 126.18 Q 112.84 126.93 112.84 128.24 Z M 117.75 125.63 L 119.08 125.63 L 119.08 133.13 L 117.75 133.13 Z M 119.28 123.2 Q 119.28 123.6 119.04 123.86 Q 118.81 124.11 118.41 124.11 Q 118 124.11 117.77 123.85 Q 117.54 123.59 117.54 123.2 Q 117.54 122.81 117.77 122.55 Q 118 122.28 118.41 122.28 Q 118.81 122.28 119.04 122.54 Q 119.28 122.79 119.28 123.2 Z M 127.08 133.13 L 125.74 133.13 L 125.74 128.52 Q 125.74 127.95 125.63 127.58 Q 125.52 127.2 125.31 126.99 Q 125.1 126.77 124.81 126.69 Q 124.53 126.6 124.2 126.6 Q 123.6 126.6 123.19 126.86 Q 122.79 127.11 122.53 127.54 Q 122.28 127.97 122.17 128.51 Q 122.05 129.05 122.05 129.62 L 122.05 133.13 L 120.72 133.13 L 120.72 125.63 L 121.95 125.63 L 122.01 126.66 Q 122.1 126.48 122.29 126.27 Q 122.49 126.05 122.8 125.86 Q 123.1 125.67 123.51 125.55 Q 123.91 125.43 124.44 125.43 Q 125.73 125.43 126.4 126.18 Q 127.08 126.93 127.08 128.24 Z" style="fill: rgb(255, 255, 255); text-wrap-mode: nowrap;"/><path d="M 136.74 124.23 Q 136.02 124.23 135.5 124.5 Q 134.97 124.77 134.63 125.26 Q 134.28 125.75 134.12 126.43 Q 133.95 127.11 133.95 127.94 Q 133.95 128.69 134.1 129.34 Q 134.24 129.99 134.55 130.47 Q 134.87 130.95 135.36 131.22 Q 135.86 131.49 136.56 131.49 Q 136.95 131.49 137.31 131.41 Q 137.67 131.33 137.97 131.21 Q 138.27 131.09 138.51 130.95 Q 138.75 130.82 138.9 130.7 L 139.89 132.17 Q 139.26 132.66 138.41 133 Q 137.55 133.34 136.38 133.34 Q 135.26 133.34 134.4 132.97 Q 133.53 132.6 132.95 131.91 Q 132.36 131.21 132.06 130.2 Q 131.76 129.2 131.76 127.94 Q 131.76 126.75 132.07 125.73 Q 132.38 124.71 132.99 123.97 Q 133.59 123.23 134.49 122.81 Q 135.39 122.39 136.56 122.39 Q 137.64 122.39 138.48 122.7 Q 139.31 123.02 139.94 123.56 L 138.9 125.01 Q 138.54 124.73 138.05 124.48 Q 137.55 124.23 136.74 124.23 Z M 142.62 129.35 Q 142.62 130.44 143.04 131.04 Q 143.46 131.63 144.31 131.63 Q 145.17 131.63 145.58 131.03 Q 145.99 130.43 145.99 129.35 Q 145.99 128.27 145.58 127.67 Q 145.17 127.07 144.31 127.07 Q 143.46 127.07 143.04 127.66 Q 142.62 128.25 142.62 129.35 Z M 140.61 129.35 Q 140.61 128.43 140.85 127.7 Q 141.1 126.96 141.58 126.45 Q 142.06 125.93 142.74 125.64 Q 143.43 125.36 144.31 125.36 Q 145.18 125.36 145.87 125.64 Q 146.56 125.93 147.03 126.45 Q 147.51 126.96 147.75 127.7 Q 148 128.43 148 129.35 Q 148 130.26 147.75 131 Q 147.51 131.73 147.03 132.25 Q 146.56 132.77 145.87 133.05 Q 145.18 133.34 144.31 133.34 Q 143.43 133.34 142.74 133.05 Q 142.06 132.77 141.58 132.25 Q 141.1 131.73 140.85 131 Q 140.61 130.26 140.61 129.35 Z M 152.66 131.6 Q 152.96 131.6 153.22 131.52 Q 153.47 131.43 153.67 131.32 Q 153.86 131.21 154 131.07 Q 154.13 130.94 154.21 130.82 L 154.21 129.45 Q 154.21 128.93 154.13 128.49 Q 154.04 128.06 153.86 127.75 Q 153.67 127.44 153.35 127.27 Q 153.02 127.1 152.56 127.1 Q 151.75 127.1 151.38 127.69 Q 151.01 128.28 151.01 129.35 Q 151.01 130.53 151.42 131.07 Q 151.82 131.6 152.66 131.6 Z M 154.51 133.13 L 154.45 132.36 Q 154.15 132.66 153.63 132.94 Q 153.11 133.22 152.24 133.22 Q 151.61 133.22 151.03 133.02 Q 150.44 132.83 149.99 132.38 Q 149.53 131.93 149.26 131.19 Q 148.99 130.44 148.99 129.35 Q 148.99 128.52 149.18 127.8 Q 149.36 127.08 149.75 126.54 Q 150.14 126 150.74 125.69 Q 151.33 125.37 152.14 125.37 Q 152.96 125.37 153.47 125.65 Q 153.97 125.93 154.21 126.27 L 154.21 121.88 L 156.22 121.88 L 156.22 133.13 Z M 164.41 129.98 L 159.43 129.98 Q 159.49 130.73 160.04 131.19 Q 160.59 131.64 161.56 131.64 Q 162.27 131.64 162.78 131.54 Q 163.29 131.43 163.56 131.34 L 164.01 132.84 Q 163.8 132.96 163.14 133.15 Q 162.49 133.34 161.46 133.34 Q 160.6 133.34 159.87 133.08 Q 159.13 132.83 158.6 132.33 Q 158.07 131.82 157.77 131.07 Q 157.47 130.31 157.47 129.3 Q 157.47 128.42 157.69 127.69 Q 157.92 126.96 158.37 126.45 Q 158.82 125.93 159.47 125.65 Q 160.12 125.37 160.98 125.37 Q 162.63 125.37 163.52 126.36 Q 164.41 127.35 164.41 129.54 Z M 160.98 126.98 Q 160.24 126.98 159.87 127.4 Q 159.51 127.82 159.43 128.52 L 162.52 128.52 Q 162.39 126.98 160.98 126.98 Z M 165.64 131.07 Q 165.83 131.19 166.13 131.31 Q 166.42 131.43 166.76 131.53 Q 167.11 131.63 167.5 131.7 Q 167.89 131.76 168.28 131.76 Q 168.8 131.76 169.1 131.59 Q 169.39 131.42 169.39 131.07 Q 169.39 130.74 169.15 130.55 Q 168.91 130.35 168.29 130.23 L 167.38 130.05 Q 166.91 129.96 166.51 129.79 Q 166.1 129.62 165.81 129.35 Q 165.52 129.08 165.35 128.68 Q 165.19 128.28 165.19 127.74 Q 165.19 127.25 165.39 126.81 Q 165.59 126.38 165.98 126.06 Q 166.36 125.75 166.91 125.56 Q 167.47 125.37 168.17 125.37 Q 169.12 125.37 169.88 125.58 Q 170.63 125.79 171.07 126.08 L 170.48 127.46 Q 170.17 127.31 169.59 127.14 Q 169.01 126.96 168.29 126.96 Q 168.13 126.96 167.91 126.99 Q 167.69 127.01 167.49 127.08 Q 167.29 127.16 167.15 127.3 Q 167.02 127.44 167.02 127.68 Q 167.02 127.92 167.2 128.1 Q 167.38 128.28 167.98 128.4 L 168.88 128.58 Q 170.15 128.82 170.73 129.4 Q 171.31 129.98 171.31 130.92 Q 171.31 132.05 170.54 132.69 Q 169.78 133.34 168.14 133.34 Q 167.06 133.34 166.23 133.05 Q 165.4 132.75 164.96 132.44 Z M 176.51 125.37 Q 177.33 125.37 177.93 125.67 Q 178.53 125.96 178.93 126.48 Q 179.33 126.99 179.52 127.71 Q 179.7 128.43 179.7 129.29 Q 179.7 130.34 179.41 131.09 Q 179.12 131.84 178.65 132.33 Q 178.17 132.81 177.55 133.05 Q 176.93 133.28 176.28 133.28 Q 175.31 133.28 174.47 132.81 L 174.47 136.43 L 172.46 136.43 L 172.46 125.57 L 174.27 125.57 L 174.33 126.5 Q 174.44 126.3 174.64 126.1 Q 174.84 125.9 175.12 125.74 Q 175.4 125.58 175.75 125.48 Q 176.1 125.37 176.51 125.37 Z M 175.94 131.6 Q 176.72 131.6 177.19 131.04 Q 177.66 130.47 177.66 129.29 Q 177.66 128.22 177.29 127.66 Q 176.91 127.1 176.1 127.1 Q 175.2 127.1 174.84 127.74 Q 174.47 128.37 174.47 129.59 L 174.47 131.21 Q 174.81 131.42 175.18 131.51 Q 175.55 131.6 175.94 131.6 Z M 185.2 129.83 Q 184.94 129.78 184.6 129.74 Q 184.25 129.69 183.76 129.69 Q 182.99 129.69 182.71 129.98 Q 182.42 130.26 182.42 130.83 Q 182.42 131.31 182.73 131.58 Q 183.04 131.84 183.56 131.84 Q 184.3 131.84 184.75 131.43 Q 185.2 131.01 185.2 130.41 Z M 183.14 133.31 Q 182.65 133.31 182.19 133.19 Q 181.73 133.07 181.37 132.79 Q 181.01 132.51 180.79 132.05 Q 180.58 131.58 180.58 130.88 Q 180.58 129.6 181.36 128.96 Q 182.14 128.31 183.71 128.31 Q 183.92 128.31 184.16 128.33 Q 184.4 128.34 184.62 128.37 Q 184.84 128.39 184.99 128.4 Q 185.15 128.42 185.2 128.43 L 185.2 128.16 Q 185.2 127.56 184.81 127.27 Q 184.42 126.98 183.74 126.98 Q 182.84 126.98 182.27 127.19 Q 181.7 127.4 181.48 127.55 L 180.89 126.15 Q 181 126.08 181.24 125.94 Q 181.48 125.81 181.86 125.68 Q 182.24 125.55 182.75 125.46 Q 183.26 125.36 183.92 125.36 Q 185.62 125.36 186.36 126.12 Q 187.1 126.87 187.1 128.15 L 187.1 133.13 L 185.38 133.13 L 185.32 132.36 Q 185.03 132.71 184.49 133.01 Q 183.95 133.31 183.14 133.31 Z M 190.31 129.35 Q 190.31 130.53 190.8 131.07 Q 191.28 131.6 192.23 131.6 Q 192.86 131.6 193.22 131.43 Q 193.58 131.27 193.79 131.13 L 194.54 132.53 Q 194.4 132.62 194.19 132.76 Q 193.97 132.9 193.65 133.03 Q 193.34 133.16 192.93 133.25 Q 192.51 133.34 192 133.34 Q 191.09 133.34 190.39 133.05 Q 189.69 132.77 189.23 132.25 Q 188.76 131.73 188.52 130.99 Q 188.28 130.25 188.28 129.35 Q 188.28 128.46 188.54 127.73 Q 188.79 126.99 189.28 126.47 Q 189.77 125.94 190.46 125.66 Q 191.15 125.37 192.02 125.37 Q 192.57 125.37 193.02 125.49 Q 193.47 125.61 193.8 125.77 Q 194.12 125.93 194.31 126.07 Q 194.51 126.21 194.57 126.27 L 193.67 127.65 Q 193.59 127.61 193.46 127.52 Q 193.32 127.43 193.13 127.34 Q 192.93 127.25 192.68 127.18 Q 192.42 127.11 192.12 127.11 Q 191.3 127.11 190.8 127.66 Q 190.31 128.21 190.31 129.35 Z M 202.08 129.98 L 197.1 129.98 Q 197.16 130.73 197.71 131.19 Q 198.25 131.64 199.23 131.64 Q 199.93 131.64 200.44 131.54 Q 200.95 131.43 201.22 131.34 L 201.67 132.84 Q 201.46 132.96 200.81 133.15 Q 200.16 133.34 199.12 133.34 Q 198.27 133.34 197.53 133.08 Q 196.8 132.83 196.27 132.33 Q 195.73 131.82 195.43 131.07 Q 195.13 130.31 195.13 129.3 Q 195.13 128.42 195.36 127.69 Q 195.58 126.96 196.03 126.45 Q 196.48 125.93 197.14 125.65 Q 197.79 125.37 198.64 125.37 Q 200.29 125.37 201.19 126.36 Q 202.08 127.35 202.08 129.54 Z M 198.64 126.98 Q 197.91 126.98 197.54 127.4 Q 197.17 127.82 197.1 128.52 L 200.19 128.52 Q 200.05 126.98 198.64 126.98 Z M 203.3 131.07 Q 203.5 131.19 203.79 131.31 Q 204.08 131.43 204.43 131.53 Q 204.77 131.63 205.16 131.7 Q 205.55 131.76 205.94 131.76 Q 206.47 131.76 206.76 131.59 Q 207.05 131.42 207.05 131.07 Q 207.05 130.74 206.81 130.55 Q 206.57 130.35 205.96 130.23 L 205.04 130.05 Q 204.58 129.96 204.17 129.79 Q 203.77 129.62 203.48 129.35 Q 203.18 129.08 203.02 128.68 Q 202.85 128.28 202.85 127.74 Q 202.85 127.25 203.06 126.81 Q 203.26 126.38 203.64 126.06 Q 204.02 125.75 204.58 125.56 Q 205.13 125.37 205.84 125.37 Q 206.78 125.37 207.54 125.58 Q 208.3 125.79 208.73 126.08 L 208.15 127.46 Q 207.83 127.31 207.26 127.14 Q 206.68 126.96 205.96 126.96 Q 205.79 126.96 205.58 126.99 Q 205.36 127.01 205.16 127.08 Q 204.95 127.16 204.82 127.3 Q 204.68 127.44 204.68 127.68 Q 204.68 127.92 204.86 128.1 Q 205.04 128.28 205.64 128.4 L 206.54 128.58 Q 207.82 128.82 208.4 129.4 Q 208.97 129.98 208.97 130.92 Q 208.97 132.05 208.21 132.69 Q 207.44 133.34 205.81 133.34 Q 204.73 133.34 203.9 133.05 Q 203.06 132.75 202.63 132.44 Z" style="fill: rgb(255, 255, 255); text-wrap-mode: nowrap;"/><path d="M 70.955 116.46 L 71.042 116.46 C 73.132 116.46 75.087 117.031 76.762 118.026 L 76.71 117.997 C 78.423 118.991 79.852 120.41 80.857 122.118 L 80.885 122.172 C 81.899 123.917 82.432 125.9 82.427 127.918 C 82.427 132.957 79.181 137.238 74.666 138.783 L 74.585 138.807 C 74.38 138.87 74.158 138.831 73.987 138.702 L 73.989 138.703 C 73.865 138.593 73.794 138.435 73.795 138.269 L 73.795 138.256 L 73.795 138.257 L 73.803 137.114 C 73.807 136.382 73.81 135.713 73.81 135.107 C 73.88 134.32 73.596 133.543 73.034 132.987 C 73.573 132.935 74.109 132.84 74.635 132.703 L 74.564 132.719 C 75.064 132.582 75.546 132.381 75.996 132.121 L 75.967 132.136 C 76.426 131.886 76.835 131.551 77.172 131.15 L 77.177 131.144 C 77.532 130.687 77.798 130.167 77.96 129.611 L 77.968 129.578 C 78.173 128.889 78.277 128.172 78.275 127.452 L 78.274 127.326 L 78.274 127.332 L 78.275 127.265 C 78.276 126.149 77.854 125.072 77.092 124.255 L 77.095 124.258 C 77.252 123.848 77.342 123.374 77.342 122.879 C 77.342 122.295 77.214 121.718 76.966 121.189 L 76.976 121.213 C 76.561 121.136 76.132 121.195 75.755 121.382 L 75.766 121.377 C 75.275 121.556 74.803 121.782 74.357 122.054 L 74.392 122.033 L 73.825 122.391 C 72.966 122.145 71.979 122.003 70.959 122.003 C 69.94 122.003 68.953 122.145 68.017 122.41 L 68.092 122.391 C 67.933 122.282 67.722 122.147 67.458 121.987 C 67.078 121.772 66.681 121.587 66.272 121.433 L 66.211 121.412 C 65.818 121.207 65.367 121.137 64.931 121.213 L 64.943 121.211 C 64.7 121.733 64.575 122.301 64.577 122.877 C 64.577 123.372 64.667 123.847 64.833 124.284 L 64.824 124.257 C 64.047 125.091 63.624 126.195 63.645 127.335 L 63.645 127.331 L 63.644 127.452 C 63.644 128.206 63.756 128.935 63.965 129.621 L 63.951 129.568 C 64.127 130.167 64.394 130.688 64.743 131.146 L 64.735 131.134 C 65.062 131.535 65.462 131.871 65.915 132.123 L 65.936 132.134 C 66.338 132.368 66.805 132.567 67.297 132.706 L 67.339 132.716 C 67.774 132.833 68.294 132.928 68.826 132.981 L 68.869 132.984 C 68.467 133.383 68.2 133.916 68.138 134.511 L 68.137 134.522 C 67.929 134.622 67.71 134.696 67.486 134.742 L 67.466 134.746 C 67.228 134.793 66.955 134.82 66.674 134.82 L 66.612 134.82 L 66.615 134.82 C 66.262 134.813 65.92 134.7 65.632 134.496 L 65.638 134.5 C 65.295 134.262 65.014 133.947 64.817 133.581 L 64.81 133.567 C 64.63 133.26 64.386 132.998 64.094 132.796 L 64.086 132.791 C 63.869 132.628 63.624 132.508 63.363 132.436 L 63.348 132.433 L 63.05 132.388 L 62.978 132.385 C 62.846 132.386 62.724 132.41 62.611 132.457 L 62.617 132.454 C 62.537 132.499 62.513 132.556 62.543 132.626 C 62.578 132.705 62.624 132.775 62.678 132.835 L 62.677 132.834 C 62.734 132.902 62.797 132.96 62.868 133.011 L 62.871 133.013 L 62.975 133.088 C 63.239 133.226 63.456 133.418 63.621 133.65 L 63.625 133.655 C 63.803 133.876 63.959 134.126 64.085 134.394 L 64.094 134.416 L 64.243 134.759 C 64.369 135.134 64.598 135.447 64.896 135.673 L 64.9 135.677 C 65.18 135.895 65.517 136.052 65.886 136.122 L 65.9 136.124 C 66.208 136.184 66.566 136.221 66.931 136.229 L 66.938 136.229 C 66.981 136.23 67.027 136.231 67.078 136.23 C 67.321 136.23 67.559 136.211 67.792 136.173 L 67.767 136.176 L 68.11 136.117 C 68.11 136.495 68.112 136.936 68.118 137.438 C 68.122 137.941 68.125 138.212 68.125 138.252 L 68.125 138.265 C 68.125 138.437 68.051 138.592 67.931 138.699 L 67.93 138.699 C 67.758 138.828 67.534 138.867 67.329 138.803 L 67.334 138.804 C 62.74 137.23 59.497 132.948 59.497 127.909 C 59.497 125.795 60.067 123.815 61.064 122.113 L 61.034 122.167 C 62.027 120.453 63.447 119.026 65.155 118.021 L 65.209 117.992 C 66.924 116.983 68.878 116.453 70.869 116.459 L 70.96 116.459 L 70.955 116.46 Z M 63.835 132.924 C 63.865 132.854 63.83 132.794 63.731 132.745 C 63.631 132.715 63.567 132.725 63.537 132.775 C 63.507 132.845 63.542 132.904 63.641 132.954 C 63.731 133.013 63.795 133.003 63.835 132.924 M 64.298 133.432 C 64.367 133.382 64.358 133.302 64.269 133.193 C 64.169 133.104 64.09 133.089 64.03 133.148 C 63.96 133.198 63.97 133.278 64.06 133.387 C 64.159 133.485 64.238 133.499 64.298 133.431 L 64.298 133.432 Z M 64.746 134.103 C 64.835 134.033 64.835 133.939 64.746 133.819 C 64.666 133.69 64.582 133.66 64.492 133.73 C 64.403 133.779 64.403 133.869 64.492 133.998 C 64.582 134.128 64.666 134.162 64.746 134.103 M 65.372 134.73 C 65.451 134.651 65.432 134.556 65.312 134.447 C 65.193 134.327 65.093 134.312 65.014 134.402 C 64.925 134.481 64.944 134.576 65.074 134.685 C 65.193 134.805 65.292 134.819 65.372 134.726 L 65.372 134.73 Z M 66.223 135.103 C 66.253 134.994 66.188 134.914 66.029 134.864 C 65.88 134.824 65.785 134.86 65.746 134.969 C 65.706 135.078 65.77 135.152 65.94 135.192 C 66.089 135.253 66.183 135.223 66.223 135.103 M 67.163 135.177 C 67.163 135.048 67.078 134.994 66.91 135.013 C 66.75 135.013 66.671 135.068 66.671 135.177 C 66.671 135.307 66.755 135.361 66.925 135.341 C 67.083 135.342 67.163 135.287 67.163 135.178 L 67.163 135.177 Z M 68.029 135.028 C 68.009 134.919 67.919 134.874 67.761 134.894 C 67.601 134.924 67.531 134.998 67.552 135.118 C 67.571 135.237 67.661 135.277 67.82 135.237 C 67.979 135.197 68.049 135.128 68.03 135.028 L 68.029 135.028 Z" style="fill: rgb(255, 255, 255);"/></g></svg>